<?xml version="1.0" encoding="utf-8"?>
<!-- Generator: Adobe Illustrator 23.0.1, SVG Export Plug-In . SVG Version: 6.00 Build 0)  -->
<svg version="1.1" id="Layer_1" xmlns="http://www.w3.org/2000/svg" xmlns:xlink="http://www.w3.org/1999/xlink" x="0px" y="0px"
	 viewBox="0 0 100 100" style="enable-background:new 0 0 100 100;" xml:space="preserve">
<path d="M89,17H41c-3.3,0-6,2.7-6,6v12H11c-3.3,0-6,2.7-6,6v26c0,3.3,2.7,6,6,6h4l6.4,9.1c0.4,0.5,1,0.9,1.6,0.9s1.3-0.3,1.6-0.9
	L31,73h28c3.3,0,6-2.7,6-6V55h4l6.4,9.1c0.4,0.5,1,0.9,1.6,0.9s1.3-0.3,1.6-0.9L85,55h4c3.3,0,6-2.7,6-6V23C95,19.7,92.3,17,89,17z
	 M61,67c0,1.1-0.9,2-2,2H30c-0.7,0-1.3,0.3-1.6,0.8L23,77.5l-5.4-7.7c-0.4-0.5-1-0.8-1.6-0.8h-5c-1.1,0-2-0.9-2-2V41
	c0-1.1,0.9-2,2-2h24v10c0,3.3,2.7,6,6,6h20V67z M91,49c0,1.1-0.9,2-2,2h-5c-0.7,0-1.3,0.3-1.6,0.8L77,59.5l-5.4-7.7
	c-0.4-0.5-1-0.8-1.6-0.8H41c-1.1,0-2-0.9-2-2V23c0-1.1,0.9-2,2-2h48c1.1,0,2,0.9,2,2V49z M83,31c0,1.1-0.9,2-2,2H49
	c-1.1,0-2-0.9-2-2c0-1.1,0.9-2,2-2h32C82.1,29,83,29.9,83,31z M83,41c0,1.1-0.9,2-2,2H49c-1.1,0-2-0.9-2-2c0-1.1,0.9-2,2-2h32
	C82.1,39,83,39.9,83,41z"/>
</svg>
